#!OML:ASF I:\salsa\salsa 7_09\Patient 1\Session 1\dancerfemale.ASF
:FULLY-SPECIFIED
:DEGREES
3208
root 10.6915 15.9553 -5.58293 -2884.41 -113.392 -355.003
lowerback 13.3814 1.24197 -5.14693
upperback 1.02347 0.556109 -2.61382
thorax -6.46267 0.318942 0.0424067
lowerneck -3.77803 6.65022 0.896917
upperneck -13.199 8.40055 -1.58723
head -3.50054 4.01172 -0.810052
rclavicle 8.34896e-015 -1.59028e-014
rhumerus 33.0534 -59.3634 -29.7231
rradius 89.6288
rwrist -31.7845
rhand -7.14684 765.368
rfingers 7.12502
rthumb 18.7296 376.25
lclavicle 8.34896e-015 -1.59028e-014
lhumerus -43.7023 -7.03075 95.9332
lradius 95.8031
lwrist -25.0444
lhand -22.1972 -303.168
lfingers 7.12502
lthumb 4.21838 -2433.23
rfemur -8.36728 1.55219 27.8848
rtibia 24.0363
rfoot -21.0016 -6.70111
rtoes -3.7055
lfemur -21.2186 -1.08454 -10.0892
ltibia 38.2538
lfoot -17.4083 5.72258
ltoes -52.5789
3209
root 10.6541 15.9654 -5.57219 -2884.15 -113.205 -355.216
lowerback 13.6664 1.0997 -4.95752
upperback 1.06264 0.3764 -2.60594
thorax -6.57114 0.226821 -0.025072
lowerneck -3.82397 6.67926 1.05357
upperneck -13.799 8.35587 -2.0582
head -3.67526 3.98133 -1.00164
rclavicle 2.92213e-014 7.31528e-014
rhumerus 32.9208 -59.9568 -29.5872
rradius 90.0211
rwrist -32.3651
rhand -7.43808 765.195
rfingers 7.12502
rthumb 18.4495 376.049
lclavicle 2.92213e-014 7.31528e-014
lhumerus -43.2001 -6.63264 96.0981
lradius 95.8545
lwrist -24.7924
lhand -22.158 -303.186
lfingers 7.12502
lthumb 4.25622 -2433.25
rfemur -8.25235 1.16779 27.7115
rtibia 23.8669
rfoot -20.821 -6.80967
rtoes -5.59581
lfemur -20.8897 -0.522773 -10.3212
ltibia 37.721
lfoot -17.383 5.08595
ltoes -53.1566
3210
root 10.6266 15.9909 -5.56703 -2883.74 -112.883 -355.634
lowerback 14.0883 0.991526 -4.93262
upperback 1.06689 0.203318 -2.61006
thorax -6.79565 0.14411 -0.0151951
lowerneck -3.84742 6.71014 0.998062
upperneck -14.3244 8.34987 -2.21255
head -3.8541 3.97165 -1.05731
rclavicle -1.55052e-014 -2.06736e-014
rhumerus 32.6664 -60.5536 -29.3713
rradius 90.5097
rwrist -33.017
rhand -7.70518 765.076
rfingers 7.12502
rthumb 18.1925 375.906
lclavicle -1.55052e-014 -2.06736e-014
lhumerus -42.7516 -6.23673 96.2992
lradius 95.9185
lwrist -24.6431
lhand -22.03 -303.138
lfingers 7.12502
lthumb 4.37983 -2433.2
rfemur -8.17082 1.5534 27.3077
rtibia 23.8336
rfoot -21.0737 -6.68658
rtoes -1.40603
lfemur -20.6057 -0.0968498 -10.6375
ltibia 37.2055
lfoot -17.3006 4.50801
ltoes -53.3797
3211
root 10.6029 16.004 -5.56532 -2882.76 -112.453 -356.616
lowerback 14.4122 0.929757 -5.1539
upperback 1.06856 0.0497896 -2.69177
thorax -6.97011 0.0750091 0.0495419
lowerneck -3.67004 6.74388 0.934662
upperneck -14.9888 8.36412 -2.22894
head -4.12988 3.96647 -1.08087
rclavicle -5.92378e-014 -3.18055e-014
rhumerus 32.471 -61.2759 -29.2618
rradius 90.9886
rwrist -33.4073
rhand -7.71388 764.902
rfingers 7.12502
rthumb 18.1841 375.732
lclavicle -5.92378e-014 -3.18055e-014
lhumerus -42.4221 -5.63591 96.4851
lradius 96.0579
lwrist -24.804
lhand -21.4829 -303.26
lfingers 7.12502
lthumb 4.90808 -2433.34
rfemur -8.21732 1.47156 26.8343
rtibia 23.9207
rfoot -21.1564 -7.01835
rtoes -1.47532
lfemur -20.4888 0.104559 -11.1773
ltibia 36.7709
lfoot -17.1324 4.04141
ltoes -53.4223
3212
root 10.5794 16.0055 -5.56736 -2881.65 -111.962 -357.667
lowerback 14.5886 0.89189 -5.45386
upperback 1.05978 -0.0729238 -2.75638
thorax -7.07409 0.0235586 0.172579
lowerneck -3.41417 6.79693 0.9183
upperneck -15.5774 8.42846 -2.11916
head -4.39988 3.98104 -1.0733
rclavicle 1.49089e-014 -4.29375e-014
rhumerus 32.415 -62.0602 -29.2787
rradius 91.3917
rwrist -33.4961
rhand -7.59115 764.812
rfingers 7.12502
rthumb 18.3022 375.653
lclavicle 1.49089e-014 -4.29375e-014
lhumerus -42.2598 -4.86859 96.7376
lradius 96.2426
lwrist -24.9868
lhand -20.6872 -303.576
lfingers 7.12502
lthumb 5.67637 -2433.67
rfemur -8.37612 1.07639 26.4598
rtibia 24.1234
rfoot -21.089 -7.64765
rtoes -4.21371
lfemur -20.4756 -0.0107208 -11.7116
ltibia 36.3982
lfoot -16.9568 3.80508
ltoes -53.1947
3213
root 10.558 16.0056 -5.57302 -2880.77 -111.431 -358.36
lowerback 14.6364 0.84673 -5.65602
upperback 0.991956 -0.172346 -2.76191
thorax -7.16953 -0.0149691 0.299307
lowerneck -3.31864 6.83167 0.832812
upperneck -15.7975 8.49696 -1.89025
head -4.51472 4.00449 -0.996523
rclavicle 7.31528e-014 7.79236e-014
rhumerus 32.4321 -62.7197 -29.3584
rradius 91.7567
rwrist -33.4356
rhand -7.61553 764.664
rfingers 7.12502
rthumb 18.2787 375.503
lclavicle 7.31528e-014 7.79236e-014
lhumerus -42.1426 -4.36472 97.0033
lradius 96.4168
lwrist -24.9648
lhand -20.0257 -303.66
lfingers 7.12502
lthumb 6.31498 -2433.77
rfemur -8.63105 0.926248 26.2218
rtibia 24.3198
rfoot -21.1429 -8.2618
rtoes -5.65959
lfemur -20.6442 -0.403699 -12.0453
ltibia 36.1459
lfoot -16.8378 3.73366
ltoes -52.7998
